<svg width="31" height="31" viewBox="0 0 31 31" fill="none" xmlns="http://www.w3.org/2000/svg">
<g clip-path="url(#clip0_2_2782)">
<path d="M10.7988 1.01983C7.7014 2.09434 5.03023 4.13379 3.17761 6.83863C1.32499 9.54346 0.388576 12.7711 0.505918 16.0475C0.62326 19.3238 1.78817 22.4762 3.82954 25.0416C5.87091 27.607 8.68114 29.4501 11.8475 30.3003C14.4145 30.9627 17.1039 30.9918 19.6846 30.3851C22.0225 29.8599 24.184 28.7366 25.9573 27.1252C27.803 25.3968 29.1426 23.1981 29.8323 20.7654C30.5819 18.1199 30.7153 15.3378 30.2222 12.6327H15.8072V18.6123H24.1554C23.9886 19.566 23.631 20.4763 23.1042 21.2886C22.5774 22.1009 21.8921 22.7985 21.0893 23.3398C20.0699 24.0142 18.9208 24.4679 17.7157 24.6719C16.507 24.8966 15.2673 24.8966 14.0586 24.6719C12.8336 24.4186 11.6748 23.913 10.6559 23.1872C9.01906 22.0286 7.79003 20.3825 7.14417 18.484C6.4874 16.5498 6.4874 14.453 7.14417 12.5189C7.60391 11.1632 8.36391 9.92878 9.36746 8.90787C10.5159 7.71812 11.9698 6.86768 13.5698 6.44985C15.1697 6.03203 16.8539 6.06297 18.4374 6.53928C19.6744 6.91901 20.8056 7.58247 21.7408 8.47678C22.6821 7.54032 23.6218 6.60144 24.5599 5.66014C25.0443 5.15397 25.5722 4.67201 26.0493 4.15373C24.6218 2.82528 22.9461 1.79157 21.1184 1.11186C17.79 -0.0966829 14.1482 -0.129161 10.7988 1.01983Z" fill="white"/>
<path d="M10.7987 1.01954C14.1478 -0.13023 17.7896 -0.0986066 21.1183 1.10915C22.9463 1.79348 24.6212 2.83216 26.0468 4.16555C25.5624 4.68384 25.0514 5.16821 24.5573 5.67196C23.6177 6.61003 22.6788 7.54488 21.7407 8.47649C20.8055 7.58218 19.6743 6.91872 18.4373 6.53899C16.8543 6.06101 15.1702 6.02828 13.5698 6.4444C11.9695 6.86051 10.5146 7.70939 9.36492 8.8979C8.36138 9.9188 7.60138 11.1532 7.14164 12.5089L2.12109 8.6218C3.91814 5.05816 7.02963 2.33225 10.7987 1.01954Z" fill="#E33629"/>
<path d="M0.788587 12.4727C1.05844 11.1353 1.50644 9.84015 2.12062 8.62189L7.14116 12.5187C6.48439 14.4528 6.48439 16.5496 7.14116 18.4838C5.46846 19.7754 3.79494 21.0736 2.12062 22.3781C0.583092 19.3177 0.114174 15.8306 0.788587 12.4727Z" fill="#F8BD00"/>
<path d="M15.8077 12.6301H30.2227C30.7158 15.3351 30.5824 18.1172 29.8328 20.7627C29.1431 23.1954 27.8035 25.3942 25.9578 27.1226C24.3376 25.8583 22.7101 24.6038 21.0898 23.3396C21.8931 22.7978 22.5787 22.0993 23.1056 21.2862C23.6324 20.473 23.9897 19.5618 24.1559 18.6073H15.8077C15.8053 16.6165 15.8077 14.6233 15.8077 12.6301Z" fill="#587DBD"/>
<path d="M2.11914 22.3781C3.79346 21.0865 5.46698 19.7883 7.13969 18.4838C7.78683 20.383 9.01762 22.0291 10.6562 23.187C11.6783 23.9094 12.8396 24.4109 14.0663 24.6595C15.2749 24.8843 16.5146 24.8843 17.7233 24.6595C18.9284 24.4556 20.0775 24.0018 21.097 23.3275C22.7172 24.5917 24.3447 25.8463 25.9649 27.1105C24.1918 28.7228 22.0304 29.8469 19.6923 30.3727C17.1115 30.9794 14.4221 30.9504 11.8551 30.288C9.82482 29.7459 7.92843 28.7903 6.28477 27.481C4.54504 26.0998 3.12411 24.3592 2.11914 22.3781Z" fill="#319F43"/>
</g>
<defs>
<clipPath id="clip0_2_2782">
<rect width="31" height="31" fill="white"/>
</clipPath>
</defs>
</svg>
