<svg width="21" height="21" viewBox="0 0 21 21" fill="none" xmlns="http://www.w3.org/2000/svg">
<path d="M10.75 20.75C8.72275 20.75 6.74101 20.1489 5.05541 19.0226C3.36981 17.8963 2.05604 16.2955 1.28024 14.4225C0.504441 12.5496 0.301457 10.4886 0.696955 8.50033C1.09245 6.51202 2.06867 4.68565 3.50216 3.25216C4.93565 1.81867 6.76202 0.842454 8.75033 0.446955C10.7386 0.051457 12.7996 0.254441 14.6725 1.03024C16.5455 1.80604 18.1463 3.11981 19.2726 4.80541C20.3989 6.49101 21 8.47275 21 10.5C20.9963 13.2173 19.9152 15.8223 17.9938 17.7438C16.0723 19.6652 13.4673 20.7463 10.75 20.75ZM10.75 1.75C9.01942 1.75 7.3277 2.26318 5.88877 3.22465C4.44984 4.18611 3.32833 5.55267 2.66606 7.15152C2.00379 8.75038 1.83051 10.5097 2.16813 12.207C2.50575 13.9044 3.33911 15.4635 4.56282 16.6872C5.78653 17.9109 7.34563 18.7443 9.04296 19.0819C10.7403 19.4195 12.4996 19.2462 14.0985 18.584C15.6973 17.9217 17.0639 16.8002 18.0254 15.3612C18.9868 13.9223 19.5 12.2306 19.5 10.5C19.4974 8.18017 18.5746 5.95611 16.9343 4.31574C15.2939 2.67537 13.0698 1.75265 10.75 1.75Z" fill="#424242"/>
<path d="M19.2502 20.0012C19.1517 20.0016 19.0541 19.9823 18.9631 19.9446C18.8721 19.9068 18.7896 19.8513 18.7202 19.7812L16.7202 17.7812C16.5794 17.6407 16.5002 17.4499 16.5 17.2509C16.4998 17.052 16.5787 16.8611 16.7192 16.7202C16.8598 16.5794 17.0506 16.5002 17.2495 16.5C17.4485 16.4998 17.6394 16.5787 17.7802 16.7192L19.7802 18.7192C19.9197 18.8604 19.9979 19.0508 19.9979 19.2492C19.9979 19.4477 19.9197 19.6381 19.7802 19.7792C19.7111 19.8496 19.6286 19.9055 19.5376 19.9436C19.4466 19.9817 19.3489 20.0013 19.2502 20.0012Z" fill="#424242"/>
</svg>
