<svg width="31" height="28" viewBox="0 0 31 28" fill="none" xmlns="http://www.w3.org/2000/svg">
<path d="M0 23.6865C1.57354 24.5647 12.964 31.1931 21.0636 26.0845C29.1631 20.9759 28.7163 12.1745 28.7163 8.14141C29.45 6.58972 31 5.80086 31 1.60078C29.4775 3.02054 27.9642 3.50362 26.4601 3.05002C24.9866 0.781997 22.9592 -0.221144 20.3779 0.040631C16.5061 0.43329 15.0896 4.26794 15.5064 9.22905C9.5365 12.2767 4.85517 7.01977 2.44262 3.05002C1.63653 6.17639 0.859271 9.92979 2.44262 14.0819C3.49819 16.85 6.03562 19.1902 10.0549 21.1026C5.98161 23.3313 2.62996 24.1925 0 23.6865Z" fill="#2F88FF"/>
</svg>
